{"title":"Family Of Lies 2018 Movies DVDRip x264 5.1 with Sample ☻rDX☻","magnet":"magnet:?xt=urn:btih:6d2c3c8200739090b34b050bdb7074866273d3a5&dn=Family+Of+Lies+2018+Movies+DVDRip+x264+5.1+with+Sample+%E2%98%BBrDX%E2%98%BB&tr=udp%3A%2F%2Ftracker.leechers-paradise.org%3A6969&tr=udp%3A%2F%2Fzer0day.ch%3A1337&tr=udp%3A%2F%2Fopen.demonii.com%3A1337&tr=udp%3A%2F%2Ftracker.coppersurfer.tk%3A6969&tr=udp%3A%2F%2Fexodus.desync.com%3A6969","uploader":"basicssom","categoryP":"video","categoryS":"movies","size":"888173649","seeders":"0","leechers":"0","description":"----------------------------------------------------------------\r\nFamily Of Lies 2018 Movies DVDRip x264 5.1 with Sample &#x263B;rDX&#x263B;\r\n\r\nSCREEN SHOTS &amp; POSTER:\r\n   <a href=\"\nhttp://iphonehosting.eu/2018/4/a/debitcard/index.html\" rel=\"nofollow\" target=\"_NEW\">\nhttp://iphonehosting.eu/2018/4/a/debitcard/index.html</a> <a href=\"\nhttp://iphonehosting.eu/2018/4/a/debitcard/1.html\" rel=\"nofollow\" target=\"_NEW\">\nhttp://iphonehosting.eu/2018/4/a/debitcard/1.html</a> <a href=\"\nhttp://iphonehosting.eu/2018/4/a/debitcard/2.html\" rel=\"nofollow\" target=\"_NEW\">\nhttp://iphonehosting.eu/2018/4/a/debitcard/2.html</a>   <a href=\"\nhttp://iphonehosting.eu/2018/4/a/debitcard/3.html\" rel=\"nofollow\" target=\"_NEW\">\nhttp://iphonehosting.eu/2018/4/a/debitcard/3.html</a>   <a href=\"\nhttp://iphonehosting.eu/2018/4/a/debitcard/4.html\" rel=\"nofollow\" target=\"_NEW\">\nhttp://iphonehosting.eu/2018/4/a/debitcard/4.html</a>   <a href=\"\nhttp://iphonehosting.eu/2018/4/a/debitcard/5.html\" rel=\"nofollow\" target=\"_NEW\">\nhttp://iphonehosting.eu/2018/4/a/debitcard/5.html</a>   <a href=\"\nhttp://iphonehosting.eu/2018/4/a/debitcard/6.html\" rel=\"nofollow\" target=\"_NEW\">\nhttp://iphonehosting.eu/2018/4/a/debitcard/6.html</a>   <a href=\"\nhttp://iphonehosting.eu/2018/4/a/debitcard/7.html\" rel=\"nofollow\" target=\"_NEW\">\nhttp://iphonehosting.eu/2018/4/a/debitcard/7.html</a>   <a href=\"\nhttp://iphonehosting.eu/2018/4/a/debitcard/8.html\" rel=\"nofollow\" target=\"_NEW\">\nhttp://iphonehosting.eu/2018/4/a/debitcard/8.html</a>   <a href=\"\nhttp://iphonehosting.eu/2018/4/a/debitcard/9.html\" rel=\"nofollow\" target=\"_NEW\">\nhttp://iphonehosting.eu/2018/4/a/debitcard/9.html</a>   <a href=\"\nhttp://iphonehosting.eu/2018/4/a/debitcard/10.html\" rel=\"nofollow\" target=\"_NEW\">\nhttp://iphonehosting.eu/2018/4/a/debitcard/10.html</a>\r\n\r\nFile size                                : 839 MiB\r\nDuration                                 : 1 h 21 min\r\nOverall bit rate mode                    : Constant\r\nOverall bit rate                         : 1 436 kb/s\r\nMovie name                               : Family Of Lies 2018 Movies DVDRip x264 5.1 &#x263B;rDX&#x263B;\r\n\r\nVideo\r\nID                                       : 2\r\nFormat                                   : AVC\r\nFormat/Info                              : Advanced Video Codec\r\nFormat profile                           : <a href=\"/cdn-cgi/l/email-protection\" class=\"__cf_email__\" data-cfemail=\"feb39f9790beb2cd\">[email&#xA0;protected]</a>\r\nFormat settings, CABAC                   : Yes\r\nFormat settings, ReFrames                : 2 frames\r\nFormat settings, GOP                     : M=1, N=12\r\nCodec ID                                 : V_MPEG4/ISO/AVC\r\nDuration                                 : 1 h 21 min\r\nBit rate mode                            : Constant\r\nBit rate                                 : 989 kb/s\r\nWidth                                    : 720 pixels\r\nHeight                                   : 400 pixels\r\nDisplay aspect ratio                     : 16:9\r\nFrame rate mode                          : Constant\r\nFrame rate                               : 23.976 (24000/1001) FPS\r\nColor space                              : YUV\r\nChroma subsampling                       : 4:2:0\r\nBit depth                                : 8 bits\r\nScan type                                : Progressive\r\nBits/(Pixel*Frame)                       : 0.143\r\nStream size                              : 560 MiB (67%)\r\nTitle                                    : &#x263B;rDX&#x263B;\r\nDefault                                  : Yes\r\nForced                                   : No\r\n\r\nAudio\r\nID                                       : 1\r\nFormat                                   : AC-3\r\nFormat/Info                              : Audio Coding 3\r\nMode extension                           : CM (complete main)\r\nFormat settings, Endianness              : Big\r\nCodec ID                                 : A_AC3\r\nDuration                                 : 1 h 21 min\r\nBit rate mode                            : Constant\r\nBit rate                                 : 448 kb/s\r\nChannel(s)                               : 6 channels\r\nChannel positions                        : Front: L C R, Side: L R, LFE\r\nSampling rate                            : 48.0 kHz\r\nFrame rate                               : 31.250 FPS (1536 spf)\r\nBit depth                                : 16 bits\r\nCompression mode                         : Lossy\r\nStream size                              : 262 MiB (31%)\r\nTitle                                    : &#x263B;rDX&#x263B;\r\nDefault                                  : Yes\r\nForced                                   : No","last_updated":"2018-04-28T12:13:37.970Z","parsed":{"xt":"urn:btih:6d2c3c8200739090b34b050bdb7074866273d3a5","dn":"Family Of Lies 2018 Movies DVDRip x264 5.1 with Sample ☻rDX☻","tr":["udp://exodus.desync.com:6969","udp://open.demonii.com:1337","udp://tracker.coppersurfer.tk:6969","udp://tracker.leechers-paradise.org:6969","udp://zer0day.ch:1337"],"infoHash":"6d2c3c8200739090b34b050bdb7074866273d3a5","infoHashBuffer":{"type":"Buffer","data":[109,44,60,130,0,115,144,144,179,75,5,11,219,112,116,134,98,115,211,165]},"name":"Family Of Lies 2018 Movies DVDRip x264 5.1 with Sample ☻rDX☻","announce":["udp://exodus.desync.com:6969","udp://open.demonii.com:1337","udp://tracker.coppersurfer.tk:6969","udp://tracker.leechers-paradise.org:6969","udp://zer0day.ch:1337"],"urlList":[]}}